<?xml version="1.0" encoding="UTF-8"?>
<svg width="187px" height="92px" viewBox="0 0 187 92" version="1.1" xmlns="http://www.w3.org/2000/svg" xmlns:xlink="http://www.w3.org/1999/xlink">
    <!-- Generator: Sketch 45.2 (43514) - http://www.bohemiancoding.com/sketch -->
    <title>Group 2</title>
    <desc>Created with Sketch.</desc>
    <defs>
        <linearGradient x1="0%" y1="54.0646471%" x2="103.221705%" y2="50%" id="linearGradient-1">
            <stop stop-color="#267AEC" offset="0%"></stop>
            <stop stop-color="#85F2FB" offset="100%"></stop>
        </linearGradient>
    </defs>
    <g id="Page-1" stroke="none" stroke-width="1" fill="none" fill-rule="evenodd">
        <g id="Letter" transform="translate(-206.000000, -609.000000)">
            <g id="Group-2" transform="translate(208.000000, 611.000000)">
                <g id="Group">
                    <g id="Path-6-+-SIT-+-CRUM" stroke-linecap="round" stroke-width="3.96" stroke="url(#linearGradient-1)" stroke-linejoin="round">
                        <g id="Path-6">
                            <polyline points="0.127168277 45.8315575 6.19438577 45.7292254 12.7607263 50.4145698 23.0667661 44.8370315 36.7055115 87.9776756 41.7174072 0.0874236348 48.0522408 50.5328215 55.7395985 44.9128338 69.3587083 44.7104415 79.7432906 36.4540475 91.7442442 45.8315586 182.950292 45.83156"></polyline>
                        </g>
                    </g>
                    <path d="M64.4716766,74.7074145 C64.4716766,73.7423153 64.131723,72.9983959 63.4518058,72.4756338 C62.7718885,71.9528718 61.5455375,71.4250911 59.7727162,70.8922759 C57.9998948,70.3594608 56.5897172,69.7663358 55.5421409,69.1128833 C53.537644,67.8562437 52.5354106,66.2176103 52.5354106,64.196934 C52.5354106,62.4275855 53.2581267,60.9699055 54.7035804,59.8238502 C56.1490342,58.677795 58.0250741,58.1047759 60.3317565,58.1047759 C61.8628295,58.1047759 63.22768,58.386259 64.426349,58.9492335 C65.625018,59.512208 66.5668152,60.313932 67.2517689,61.3544295 C67.9367226,62.3949271 68.2791943,63.5485049 68.2791943,64.8151975 L64.4716766,64.8151975 C64.4716766,63.6691423 64.1115776,62.7719151 63.391369,62.1234891 C62.6711603,61.4750631 61.641227,61.150855 60.3015381,61.150855 C59.0525049,61.150855 58.0830077,61.4172585 57.3930176,61.9500737 C56.7030274,62.4828889 56.3580376,63.2268083 56.3580376,64.1818544 C56.3580376,64.9861037 56.7307274,65.6571391 57.4761182,66.1949808 C58.221509,66.7328226 59.4503781,67.2555768 61.1627623,67.7632591 C62.8751466,68.2709415 64.2500698,68.848987 65.2875732,69.497413 C66.3250767,70.145839 67.0855653,70.8897585 67.5690621,71.7291937 C68.0525588,72.5686289 68.2943035,73.5513063 68.2943035,74.6772553 C68.2943035,76.5069225 67.5917329,77.9620892 66.1865705,79.0427992 C64.7814081,80.1235092 62.8751501,80.6638561 60.4677393,80.6638561 C58.8762292,80.6638561 57.4131698,80.3698069 56.0785174,79.7816996 C54.743865,79.1935923 53.7063771,78.3818153 52.9660227,77.3463443 C52.2256684,76.3108734 51.8554967,75.1045175 51.8554967,73.7272406 L55.6781237,73.7272406 C55.6781237,74.973827 56.0911043,75.9389117 56.9170779,76.6225236 C57.7430514,77.3061355 58.9265934,77.6479363 60.4677393,77.6479363 C61.7973553,77.6479363 62.7970705,77.3790195 63.466915,76.8411778 C64.1367594,76.303336 64.4716766,75.5920887 64.4716766,74.7074145 Z M75.6827011,80.3622642 L71.8751833,80.3622642 L71.8751833,58.4063679 L75.6827011,58.4063679 L75.6827011,80.3622642 Z M95.8383705,61.4826061 L88.9787948,61.4826061 L88.9787948,80.3622642 L85.1863863,80.3622642 L85.1863863,61.4826061 L78.3872474,61.4826061 L78.3872474,58.4063679 L95.8383705,58.4063679 L95.8383705,61.4826061 Z M115.087488,73.2145342 C114.865885,75.5569103 113.999633,77.3840368 112.488706,78.6959685 C110.977779,80.0079001 108.968276,80.6638561 106.460136,80.6638561 C104.707461,80.6638561 103.16382,80.2491713 101.829167,79.4197892 C100.494515,78.5904071 99.4645815,77.4116969 98.7393364,75.8836232 C98.0140913,74.3555496 97.6363651,72.5812011 97.6061466,70.5605248 L97.6061466,68.5096993 C97.6061466,66.4387573 97.9738,64.6141441 98.709118,63.0358048 C99.4444359,61.4574656 100.499551,60.2410567 101.874495,59.3865419 C103.249439,58.532027 104.838407,58.1047759 106.641447,58.1047759 C109.069003,58.1047759 111.023106,58.7632452 112.503815,60.0802034 C113.984524,61.3971617 114.84574,63.2569603 115.087488,65.6596551 L111.27997,65.6596551 C111.098659,64.0813158 110.637833,62.9428175 109.897479,62.2441259 C109.157124,61.5454343 108.071791,61.1960938 106.641447,61.1960938 C104.979427,61.1960938 103.702712,61.8017849 102.811265,63.0131854 C101.919818,64.224586 101.464028,66.0014476 101.443883,68.3438237 L101.443883,70.289092 C101.443883,72.6616274 101.869454,74.4711612 102.72061,75.7177476 C103.571766,76.9643341 104.818262,77.5876179 106.460136,77.5876179 C107.960991,77.5876179 109.089133,77.2508436 109.844597,76.5772848 C110.60006,75.903726 111.078513,74.7828203 111.27997,73.2145342 L115.087488,73.2145342 Z M126.585587,71.9026091 L122.324794,71.9026091 L122.324794,80.3622642 L118.502167,80.3622642 L118.502167,58.4063679 L126.238076,58.4063679 C128.776434,58.4063679 130.735573,58.9743605 132.115554,60.1103626 C133.495534,61.2463648 134.185514,62.8900246 134.185514,65.0413915 C134.185514,66.5091465 133.830451,67.7381215 133.120315,68.7283535 C132.410179,69.7185854 131.420537,70.4800976 130.151358,71.0129127 L135.092065,80.1662294 L135.092065,80.3622642 L130.997473,80.3622642 L126.585587,71.9026091 Z M122.324794,68.8414505 L126.253185,68.8414505 C127.54251,68.8414505 128.549779,68.5172423 129.275024,67.8688163 C130.00027,67.2203903 130.362887,66.3332161 130.362887,65.2072671 C130.362887,64.0310525 130.027969,63.1212591 129.358125,62.4778597 C128.688281,61.8344602 127.688565,61.5027124 126.358949,61.4826061 L122.324794,61.4826061 L122.324794,68.8414505 Z M153.903016,58.4063679 L153.903016,73.0788178 C153.903016,75.4111408 153.155118,77.2583732 151.6593,78.6205705 C150.163482,79.9827677 148.171606,80.6638561 145.683613,80.6638561 C143.165401,80.6638561 141.16597,79.9928207 139.685261,78.6507297 C138.204553,77.3086386 137.464209,75.4463268 137.464209,73.0637382 L137.464209,58.4063679 L141.271727,58.4063679 L141.271727,73.0938974 C141.271727,74.5616524 141.644417,75.682558 142.389808,76.456648 C143.135199,77.230738 144.233123,77.6177771 145.683613,77.6177771 C148.624885,77.6177771 150.095498,76.0696204 150.095498,72.9732606 L150.095498,58.4063679 L153.903016,58.4063679 Z M162.938316,58.4063679 L169.284179,75.2352005 L175.614933,58.4063679 L180.555641,58.4063679 L180.555641,80.3622642 L176.748123,80.3622642 L176.748123,73.1240566 L177.125853,63.442954 L170.628898,80.3622642 L167.894133,80.3622642 L161.412287,63.4580336 L161.790017,73.1240566 L161.790017,80.3622642 L157.9825,80.3622642 L157.9825,58.4063679 L162.938316,58.4063679 Z" id="SITCRUM" fill="#333333"></path>
                </g>
            </g>
        </g>
    </g>
</svg>