<?xml version="1.0" encoding="UTF-8" standalone="no"?>
<svg width="15px" height="15px" viewBox="0 0 15 15" version="1.1" xmlns="http://www.w3.org/2000/svg" xmlns:xlink="http://www.w3.org/1999/xlink" xmlns:sketch="http://www.bohemiancoding.com/sketch/ns">
    <!-- Generator: Sketch 3.3.2 (12043) - http://www.bohemiancoding.com/sketch -->
    <title>Rectangle 658 + fraps copy + Oval 42 + Rectangle 275 Copy Copy + Oval 149 + Group Copy 3 + Rectangle 275 Copy Copy</title>
    <desc>Created with Sketch.</desc>
    <defs></defs>
    <g id="Page-1" stroke="none" stroke-width="1" fill="none" fill-rule="evenodd" sketch:type="MSPage">
        <g id="sitcrum_signos2" sketch:type="MSArtboardGroup" transform="translate(-322.000000, -95.000000)">
            <g id="Group" sketch:type="MSLayerGroup" transform="translate(101.000000, 70.000000)">
                <g transform="translate(0.000000, 23.000000)" id="Rectangle-658-+-fraps-copy-+-Oval-42-+-Rectangle-275-Copy-Copy-+-Oval-149-+-Group-Copy-3-+-Rectangle-275-Copy-Copy" sketch:type="MSShapeGroup">
                    <g transform="translate(221.000000, 2.000000)">
                        <g id="Oval-149-+-Group-Copy-3-+-Rectangle-275">
                            <g id="Oval-149-+-Group-Copy-3" fill="#53D769">
                                <ellipse id="Oval-149" cx="7.14285714" cy="7.19256966" rx="7.14285714" ry="7.19256966"></ellipse>
                            </g>
                            <path d="M8.05400397,6.28142283 L8.05400397,3.19368228 C8.05400397,2.6974975 7.64606964,2.28854489 7.14285714,2.28854489 C6.63613634,2.28854489 6.23171031,2.6937887 6.23171031,3.19368228 L6.23171031,6.28142283 L3.14396976,6.28142283 C2.64778498,6.28142283 2.23883238,6.68935716 2.23883238,7.19256966 C2.23883238,7.69929046 2.64407619,8.10371649 3.14396976,8.10371649 L6.23171031,8.10371649 L6.23171031,11.191457 C6.23171031,11.6876418 6.63964464,12.0965944 7.14285714,12.0965944 C7.64957795,12.0965944 8.05400397,11.6913506 8.05400397,11.191457 L8.05400397,8.10371649 L11.1417445,8.10371649 C11.6379293,8.10371649 12.0468819,7.69578216 12.0468819,7.19256966 C12.0468819,6.68584886 11.6416381,6.28142283 11.1417445,6.28142283 L8.05400397,6.28142283 Z" id="Rectangle-275" fill="#FFFFFF"></path>
                        </g>
                    </g>
                </g>
            </g>
        </g>
    </g>
</svg>