<?xml version="1.0" encoding="UTF-8" standalone="no"?>
<svg width="50px" height="40px" viewBox="0 0 50 40" version="1.1" xmlns="http://www.w3.org/2000/svg" xmlns:xlink="http://www.w3.org/1999/xlink" xmlns:sketch="http://www.bohemiancoding.com/sketch/ns">
    <!-- Generator: Sketch 3.3.2 (12043) - http://www.bohemiancoding.com/sketch -->
    <title>direction4 copy</title>
    <desc>Created with Sketch.</desc>
    <defs></defs>
    <g id="Page-1" stroke="none" stroke-width="1" fill="none" fill-rule="evenodd" sketch:type="MSPage">
        <g id="sitcrum_signos2" sketch:type="MSArtboardGroup" transform="translate(-1148.000000, -16.000000)" fill="#FFFFFF">
            <g id="direction4-copy" sketch:type="MSLayerGroup" transform="translate(1173.000000, 36.000000) rotate(-180.000000) translate(-1173.000000, -36.000000) translate(1148.000000, 16.000000)">
                <path d="M47.8338132,17.0151351 L32.6643212,1.81081081 C31.6838698,0.828108108 30.2104963,0.535135135 28.9291143,1.06810811 C27.6477323,1.60108108 26.8161283,2.85621622 26.8193641,4.24432432 L26.8355432,10.6259459 L3.49454444,10.6843243 C1.60375097,10.6886486 0.0742899601,12.2291892 0.0786043776,14.1243243 L0.1088053,26.5805405 C0.110962509,27.4908108 0.47337358,28.3621622 1.11730039,29.0043243 C1.76122721,29.6464865 2.63273954,30.0064865 3.54092443,30.0043243 L26.8819232,29.9459459 L26.8970236,36.3232432 C26.901338,37.7135135 27.7394136,38.9632432 29.0229528,39.4918919 C30.3054135,40.0183784 31.7809442,39.7189189 32.754924,38.7318919 L47.8499923,23.452973 C49.614589,21.6681081 49.6081174,18.7902703 47.8338132,17.0151351 L47.8338132,17.0151351 Z" id="Shape" sketch:type="MSShapeGroup"></path>
            </g>
        </g>
    </g>
</svg>