<?xml version="1.0" encoding="UTF-8" standalone="no"?>
<svg width="16px" height="16px" viewBox="0 0 16 16" version="1.1" xmlns="http://www.w3.org/2000/svg" xmlns:xlink="http://www.w3.org/1999/xlink" xmlns:sketch="http://www.bohemiancoding.com/sketch/ns">
    <!-- Generator: Sketch 3.3.2 (12043) - http://www.bohemiancoding.com/sketch -->
    <title>Rectangle 275 Copy 2</title>
    <desc>Created with Sketch.</desc>
    <defs></defs>
    <g id="Page-1" stroke="none" stroke-width="1" fill="none" fill-rule="evenodd" sketch:type="MSPage">
        <g id="sitcrum_signos" sketch:type="MSArtboardGroup" transform="translate(-7.000000, -74.000000)" fill="#FFFFFF">
            <path d="M16.9748608,79.9241826 L16.9748608,74.1627756 C16.9748608,73.0793788 16.0906855,72.1950235 15,72.1950235 C13.9017104,72.1950235 13.0251392,73.0760161 13.0251392,74.1627756 L13.0251392,79.9241826 L7.26373216,79.9241826 C6.18033541,79.9241826 5.29598014,80.8083579 5.29598014,81.8990434 C5.29598014,82.997333 6.17697273,83.8739042 7.26373216,83.8739042 L13.0251392,83.8739042 L13.0251392,89.6353112 C13.0251392,90.718708 13.9093145,91.6030633 15,91.6030633 C16.0982896,91.6030633 16.9748608,90.7220707 16.9748608,89.6353112 L16.9748608,83.8739042 L22.7362678,83.8739042 C23.8196646,83.8739042 24.7040199,82.9897289 24.7040199,81.8990434 C24.7040199,80.8007538 23.8230273,79.9241826 22.7362678,79.9241826 L16.9748608,79.9241826 Z" id="Rectangle-275-Copy-2" sketch:type="MSShapeGroup" transform="translate(15.000000, 81.899043) rotate(-45.000000) translate(-15.000000, -81.899043) "></path>
        </g>
    </g>
</svg>