<?xml version="1.0" encoding="UTF-8" standalone="no"?>
<svg width="38px" height="34px" viewBox="0 0 38 34" version="1.1" xmlns="http://www.w3.org/2000/svg" xmlns:xlink="http://www.w3.org/1999/xlink" xmlns:sketch="http://www.bohemiancoding.com/sketch/ns">
    <!-- Generator: Sketch 3.3.2 (12043) - http://www.bohemiancoding.com/sketch -->
    <title>speech-bubble19</title>
    <desc>Created with Sketch.</desc>
    <defs></defs>
    <g id="Page-1" stroke="none" stroke-width="1" fill="none" fill-rule="evenodd" sketch:type="MSPage">
        <g id="sitcrum_signos" sketch:type="MSArtboardGroup" transform="translate(-873.000000, -74.000000)" fill="#65656B">
            <g id="Rectangle-691-+-Group-+-Rectangle-700-+-Group-Copy-2-+-Rectangle-691-+-Group-+-Rectangle-700-+-Group-Copy-3-+-Rectangle-691-+-Group-+-Rectangle-700-+-Group-Copy-4" sketch:type="MSLayerGroup" transform="translate(0.000000, 68.000000)">
                <g id="Rectangle-691-+-Group-+-Rectangle-700-+-Group-Copy-4" transform="translate(854.000000, 0.000000)" sketch:type="MSShapeGroup">
                    <g id="Rectangle-700-+-Group" transform="translate(2.000000, 2.000000)">
                        <g id="Group" transform="translate(17.000000, 4.000000)">
                            <g id="speech-bubble19">
                                <path d="M35.7427427,0.7896 L1.57797798,0.7896 C0.707707708,0.7896 0,1.4952 0,2.366 L0,26.3284 C0,27.1978 0.706306306,27.9048 1.57797798,27.9048 L20.5193193,27.9048 L27.7841842,33.327 C28.7651652,34.0592 29.5667668,33.6574 29.5667668,32.4338 L29.5667668,27.9034 L35.7413413,27.9034 C36.6116116,27.9034 37.3193193,27.1978 37.3193193,26.327 L37.3193193,2.3646 C37.3193193,1.4952 36.613013,0.7896 35.7427427,0.7896 L35.7427427,0.7896 Z M10.0536537,16.597 C8.70550551,16.597 7.61381381,15.505 7.61381381,14.1596 C7.61381381,12.8128 8.70690691,11.7222 10.0536537,11.7222 C11.4004004,11.7222 12.4934935,12.8142 12.4934935,14.1596 C12.4920921,15.505 11.4004004,16.597 10.0536537,16.597 L10.0536537,16.597 Z M18.6610611,16.597 C17.3129129,16.597 16.2212212,15.505 16.2212212,14.1596 C16.2212212,12.8128 17.3143143,11.7222 18.6610611,11.7222 C20.0078078,11.7222 21.1009009,12.8142 21.1009009,14.1596 C21.1009009,15.505 20.0092092,16.597 18.6610611,16.597 L18.6610611,16.597 Z M27.2684685,16.597 C25.9203203,16.597 24.8286286,15.505 24.8286286,14.1596 C24.8286286,12.8128 25.9217217,11.7222 27.2684685,11.7222 C28.6152152,11.7222 29.7083083,12.8142 29.7083083,14.1596 C29.7083083,15.505 28.6166166,16.597 27.2684685,16.597 L27.2684685,16.597 Z" id="Shape"></path>
                            </g>
                        </g>
                    </g>
                </g>
            </g>
        </g>
    </g>
</svg>