<?xml version="1.0" encoding="UTF-8" standalone="no"?>
<svg width="33px" height="33px" viewBox="0 0 33 33" version="1.1" xmlns="http://www.w3.org/2000/svg" xmlns:xlink="http://www.w3.org/1999/xlink" xmlns:sketch="http://www.bohemiancoding.com/sketch/ns">
    <!-- Generator: Sketch 3.3.2 (12043) - http://www.bohemiancoding.com/sketch -->
    <title>Oval 202 + black-plug-head</title>
    <desc>Created with Sketch.</desc>
    <defs></defs>
    <g id="Page-1" stroke="none" stroke-width="1" fill="none" fill-rule="evenodd" sketch:type="MSPage">
        <g id="sitcrum_signosCompleta-Copy-3" sketch:type="MSArtboardGroup" transform="translate(-1318.000000, -76.000000)">
            <g id="Group" sketch:type="MSLayerGroup" transform="translate(996.000000, 75.000000)">
                <g id="Oval-202-+-black-plug-head" transform="translate(322.000000, 1.000000)" sketch:type="MSShapeGroup">
                    <circle id="Oval-202" fill="#03B220" cx="16.5" cy="16.5" r="16.5"></circle>
                    <g id="black-plug-head" transform="translate(9.000000, 6.000000)">
                        <g id="Group">
                            <path d="M15.6857419,5.02544633 L12.8837419,5.02544633 L12.8837419,0.279474576 C12.8837419,0.125163842 12.7538065,0 12.5936129,0 L10.3863226,0 C10.226129,0 10.0961935,0.125163842 10.0961935,0.279474576 L10.0961935,5.02544633 L5.89109677,5.02544633 L5.89109677,0.279474576 C5.89109677,0.125163842 5.76116129,0 5.60096774,0 L3.39367742,0 C3.23348387,0 3.10354839,0.125163842 3.10354839,0.279474576 L3.10354839,5.02544633 L0.301548387,5.02544633 C0.137290323,5.02544633 0.00419354839,5.15384181 0.00419354839,5.31200565 L0.00419354839,12.9450734 C0.00419354839,14.4934011 1.31187097,15.7530565 2.91916129,15.7530565 L13.0681935,15.7530565 C14.6754839,15.7530565 15.9831613,14.4934633 15.9831613,12.9450734 L15.9831613,5.3120678 C15.9830968,5.15384181 15.85,5.02544633 15.6857419,5.02544633 L15.6857419,5.02544633 Z" id="Shape" fill="#C3F4B2"></path>
                            <rect id="Rectangle-path" fill="#E1F7D9" x="6.62541935" y="16.9449718" width="2.73651613" height="5.04278531"></rect>
                        </g>
                    </g>
                </g>
            </g>
        </g>
    </g>
</svg>