<?xml version="1.0" encoding="UTF-8" standalone="no"?>
<svg width="33px" height="33px" viewBox="0 0 33 33" version="1.1" xmlns="http://www.w3.org/2000/svg" xmlns:xlink="http://www.w3.org/1999/xlink" xmlns:sketch="http://www.bohemiancoding.com/sketch/ns">
    <!-- Generator: Sketch 3.3.2 (12043) - http://www.bohemiancoding.com/sketch -->
    <title>Group</title>
    <desc>Created with Sketch.</desc>
    <defs></defs>
    <g id="Page-1" stroke="none" stroke-width="1" fill="none" fill-rule="evenodd" sketch:type="MSPage">
        <g id="InicioInformacionUsuario" sketch:type="MSArtboardGroup" transform="translate(-625.000000, -759.000000)">
            <g id="Group" sketch:type="MSLayerGroup" transform="translate(625.000000, 759.000000)">
                <circle id="Oval-202-Copy" fill="#8E8E93" sketch:type="MSShapeGroup" cx="16.5" cy="16.5" r="16.5"></circle>
                <path d="M24.6857419,11.0254463 L21.8837419,11.0254463 L21.8837419,6.27947458 C21.8837419,6.12516384 21.7538065,6 21.5936129,6 L19.3863226,6 C19.226129,6 19.0961935,6.12516384 19.0961935,6.27947458 L19.0961935,11.0254463 L14.8910968,11.0254463 L14.8910968,6.27947458 C14.8910968,6.12516384 14.7611613,6 14.6009677,6 L12.3936774,6 C12.2334839,6 12.1035484,6.12516384 12.1035484,6.27947458 L12.1035484,11.0254463 L9.30154839,11.0254463 C9.13729032,11.0254463 9.00419355,11.1538418 9.00419355,11.3120056 L9.00419355,18.9450734 C9.00419355,20.4934011 10.311871,21.7530565 11.9191613,21.7530565 L22.0681935,21.7530565 C23.6754839,21.7530565 24.9831613,20.4934633 24.9831613,18.9450734 L24.9831613,11.3120678 C24.9830968,11.1538418 24.85,11.0254463 24.6857419,11.0254463 L24.6857419,11.0254463 Z" id="Shape" fill="#474748" sketch:type="MSShapeGroup"></path>
                <rect id="Rectangle-path" fill="#474748" sketch:type="MSShapeGroup" x="15.6254194" y="22.9449718" width="2.73651613" height="5.04278531"></rect>
                <rect id="Rectangle-1221-Copy-2" fill="#8E8E93" sketch:type="MSShapeGroup" x="6.13831329" y="14.7613444" width="23" height="2.05409799"></rect>
            </g>
        </g>
    </g>
</svg>