<?xml version="1.0" encoding="UTF-8" standalone="no"?>
<svg width="80px" height="70px" viewBox="0 0 80 70" version="1.1" xmlns="http://www.w3.org/2000/svg" xmlns:xlink="http://www.w3.org/1999/xlink" xmlns:sketch="http://www.bohemiancoding.com/sketch/ns">
    <!-- Generator: Sketch 3.3.2 (12043) - http://www.bohemiancoding.com/sketch -->
    <title>Shape</title>
    <desc>Created with Sketch.</desc>
    <defs></defs>
    <g id="Page-1" stroke="none" stroke-width="1" fill="none" fill-rule="evenodd" sketch:type="MSPage">
        <path d="M70,0 L10,0 C4.5,0 0,4.5 0,10 L0,45 C0,50.5 4.5,55 10,55 L30,55 L50,70 L50,55 L70,55 C75.5,55 80,50.5 80,45 L80,10 C80,4.5 75.5,0 70,0 Z M21.439239,18.3449358 L46.2219896,18.3449358 C46.3900257,18.3449358 46.5542038,18.3543664 46.7170959,18.372799 L46.7170959,17.9925744 L43.161761,8.98978398 C43.0413066,8.68971954 43.1373272,8.34250212 43.3979546,8.14746024 C43.5269823,8.0492963 43.6800152,8 43.8321907,8 C43.9882242,8 44.1416857,8.05143962 44.2715708,8.15217554 L61.9543681,21.7472379 C62.1326921,21.8835529 62.236,22.0970273 62.236,22.3173603 C62.236,22.5449806 62.1326921,22.7558831 61.9543681,22.8939127 L44.2715708,36.4876891 C44.0143727,36.6861603 43.657296,36.6861603 43.3979546,36.4924044 C43.1394705,36.2956478 43.0434499,35.9531457 43.161761,35.6530813 L46.4950483,27.2109826 C46.4050289,27.2156979 46.3158669,27.2251285 46.2219896,27.2251285 L25.8767634,27.2251285 L25.8767634,42.1061813 C25.8767634,44.5598511 23.8890508,46.5441344 21.439239,46.5441344 C18.9868552,46.5441344 17,44.5598511 17,42.1061813 L17,22.7828889 C17,20.3292191 18.9868552,18.3449358 21.439239,18.3449358 Z" id="Shape" fill="#FFFFFF" sketch:type="MSShapeGroup"></path>
    </g>
</svg>