<?xml version="1.0" encoding="UTF-8" standalone="no"?>
<svg width="31px" height="34px" viewBox="0 0 31 34" version="1.1" xmlns="http://www.w3.org/2000/svg" xmlns:xlink="http://www.w3.org/1999/xlink" xmlns:sketch="http://www.bohemiancoding.com/sketch/ns">
    <!-- Generator: Sketch 3.3.2 (12043) - http://www.bohemiancoding.com/sketch -->
    <title>user154 copy 2 + Rectangle 658 + fraps copy + Oval 42 + Rectangle 275 Copy Copy + Oval 149 + Group Copy 3 + Rectangle 275 Copy Copy</title>
    <desc>Created with Sketch.</desc>
    <defs></defs>
    <g id="Page-1" stroke="none" stroke-width="1" fill="none" fill-rule="evenodd" sketch:type="MSPage">
        <g id="sitcrum_signosCompleta-Copy-3" sketch:type="MSArtboardGroup" transform="translate(-1511.000000, -78.000000)">
            <g id="user154-copy-2-+-Rectangle-658-+-fraps-copy-+-Oval-42-+-Rectangle-275-Copy-Copy-+-Oval-149-+-Group-Copy-3-+-Rectangle-275-Copy-Copy" sketch:type="MSLayerGroup" transform="translate(1511.000000, 78.000000)">
                <g id="user154-copy-2" fill="#53D769" sketch:type="MSShapeGroup">
                    <path d="M12.9045263,0.0116470588 C16.7074456,0.0116470588 19.7903268,3.08295094 19.7903268,6.87244814 C19.7903268,10.6619453 16.7081447,13.7346424 12.9045263,13.7346424 C9.100908,13.7346424 6.01872583,10.6626419 6.01872583,6.87244814 C6.01872583,3.08364754 9.10160707,0.0116470588 12.9045263,0.0116470588 L12.9045263,0.0116470588 Z M3.11480549,18.179639 C4.53950208,15.8780768 8.19771468,14.7781473 11.6713738,14.5343378 C12.0803275,14.5050806 12.4927764,15.4057828 12.9045263,15.5255978 C13.3162762,15.4057828 13.7287252,14.5050806 14.1376788,14.5343378 C17.611338,14.7788439 21.2695506,15.8787734 22.6942472,18.179639 C22.6942472,18.179639 27.6261581,26.7220295 23.4751039,31.4470588 L12.9045263,31.4470588 L2.33394872,31.4470588 C-1.81710543,26.7220295 3.11480549,18.179639 3.11480549,18.179639 L3.11480549,18.179639 Z" id="Shape"></path>
                </g>
                <g id="Rectangle-658-+-fraps-copy-+-Oval-42-+-Rectangle-275-Copy-Copy-+-Oval-149-+-Group-Copy-3-+-Rectangle-275-Copy" transform="translate(12.857143, 15.917647)" sketch:type="MSShapeGroup">
                    <g id="Oval-149-+-Group-Copy-3-+-Rectangle-275">
                        <g id="Oval-149-+-Group-Copy-3" stroke="#D2EEFB" fill="#53D769">
                            <ellipse id="Oval-149" cx="8.57142857" cy="8.54117647" rx="8.57142857" ry="8.54117647"></ellipse>
                        </g>
                        <path d="M9.66480477,7.44780027 L9.66480477,3.81337408 C9.66480477,3.20327828 9.17528357,2.71764706 8.57142857,2.71764706 C7.96336361,2.71764706 7.47805238,3.20822075 7.47805238,3.81337408 L7.47805238,7.44780027 L3.84362618,7.44780027 C3.23353038,7.44780027 2.74789916,7.93732147 2.74789916,8.54117647 C2.74789916,9.14924144 3.23847286,9.63455267 3.84362618,9.63455267 L7.47805238,9.63455267 L7.47805238,13.2689789 C7.47805238,13.8790747 7.96757357,14.3647059 8.57142857,14.3647059 C9.17949354,14.3647059 9.66480477,13.8741322 9.66480477,13.2689789 L9.66480477,9.63455267 L13.299231,9.63455267 C13.9093268,9.63455267 14.394958,9.14503147 14.394958,8.54117647 C14.394958,7.93311151 13.9043843,7.44780027 13.299231,7.44780027 L9.66480477,7.44780027 Z" id="Rectangle-275" fill="#D2EEFB"></path>
                    </g>
                </g>
            </g>
        </g>
    </g>
</svg>