<?xml version="1.0" encoding="UTF-8" standalone="no"?>
<svg width="35px" height="35px" viewBox="0 0 35 35" version="1.1" xmlns="http://www.w3.org/2000/svg" xmlns:xlink="http://www.w3.org/1999/xlink" xmlns:sketch="http://www.bohemiancoding.com/sketch/ns">
    <!-- Generator: Sketch 3.3.2 (12043) - http://www.bohemiancoding.com/sketch -->
    <title>expand8 copy</title>
    <desc>Created with Sketch.</desc>
    <defs></defs>
    <g id="Page-1" stroke="none" stroke-width="1" fill="none" fill-rule="evenodd" sketch:type="MSPage">
        <g id="sitcrum_signos" sketch:type="MSArtboardGroup" transform="translate(-812.000000, -294.000000)" fill="#65656B">
            <g id="expand8-copy" sketch:type="MSLayerGroup" transform="translate(812.000000, 294.000000)">
                <path d="M32.7815226,0 L2.18540275,0 C0.97910609,0 0,0.97910609 0,2.18540275 L0,32.7815226 C0,33.987888 0.97910609,34.9669253 2.18540275,34.9669253 L32.7815226,34.9669253 C33.987888,34.9669253 34.9669253,33.9878193 34.9669253,32.7815226 L34.9669253,2.18540275 C34.9669941,0.97910609 33.987888,0 32.7815226,0 L32.7815226,0 Z M14.2053242,30.5961198 L5.46357564,30.5961198 L5.04618861,30.5108546 L4.70086444,30.2813949 L4.69213163,30.2769941 L4.68339882,30.2638605 L4.45613949,29.9185363 L4.37087426,29.5076817 L4.37087426,20.7616699 C4.37087426,20.1606876 4.86039293,19.6689686 5.46357564,19.6689686 C6.06675835,19.6689686 6.55627701,20.1606876 6.55627701,20.7616699 L6.55627701,26.8655599 L13.4316798,19.9901572 C13.8578684,19.5683694 14.5506483,19.5683694 14.9767682,19.9901572 C15.4029568,20.4163458 15.4029568,21.1134578 14.9767682,21.5352456 L8.10136542,28.4106483 L14.2052554,28.4106483 C14.8084381,28.4106483 15.2979568,28.9023674 15.2979568,29.5033497 C15.2980255,30.1044008 14.8085069,30.5961198 14.2053242,30.5961198 L14.2053242,30.5961198 Z M30.5961198,14.2053242 C30.5961198,14.8085069 30.1044008,15.2980255 29.5034185,15.2980255 C28.9024361,15.2980255 28.4107171,14.8085069 28.4107171,14.2053242 L28.4107171,8.10143418 L21.5353143,14.9789686 C21.1135265,15.4051572 20.4163458,15.4051572 19.9902259,14.9789686 C19.5684381,14.55278 19.5684381,13.86 19.9902259,13.4338802 L26.8656287,6.55634578 L20.7617387,6.55634578 C20.1607564,6.55634578 19.6690373,6.06682711 19.6690373,5.4636444 C19.6690373,4.86046169 20.1607564,4.37094303 20.7617387,4.37094303 L29.5034872,4.37094303 L29.9208743,4.45620825 C30.185334,4.56767191 30.4016601,4.77966601 30.5109234,5.04625737 L30.5961886,5.4636444 L30.5961886,14.2053242 L30.5961198,14.2053242 Z" id="Shape" sketch:type="MSShapeGroup"></path>
            </g>
        </g>
    </g>
</svg>