<?xml version="1.0" encoding="UTF-8"?>
<svg width="97px" height="48px" viewBox="0 0 97 48" version="1.1" xmlns="http://www.w3.org/2000/svg" xmlns:xlink="http://www.w3.org/1999/xlink">
    <!-- Generator: Sketch 45.2 (43514) - http://www.bohemiancoding.com/sketch -->
    <title>Group Copy</title>
    <desc>Created with Sketch.</desc>
    <defs></defs>
    <g id="Page-1" stroke="none" stroke-width="1" fill="none" fill-rule="evenodd">
        <g id="Inicio" transform="translate(-21.000000, -9.000000)">
            <g id="Group-Copy" transform="translate(22.000000, 10.000000)">
                <g id="Path-6-+-SIT-+-CRUM" stroke-linecap="round" stroke-width="2.08301887" stroke="#FFFFFF" stroke-linejoin="round">
                    <g id="Path-6">
                        <polyline points="0.0660163186 23.957405 3.21566474 23.9039133 6.62442077 26.3530706 11.9745507 23.4375392 19.0547737 45.9883304 21.6565775 0.0456987182 24.9451523 26.4148839 28.9358572 23.4771631 36.0058868 23.3713672 41.3967902 19.0555248 47.6267934 23.9574056 94.9741956 23.9574063"></polyline>
                    </g>
                </g>
                <path d="M33.4689031,39.051603 C33.4689031,38.5471194 33.2924245,38.1582524 32.939462,37.8849904 C32.5864995,37.6117284 31.9498692,37.3358431 31.0295521,37.0573261 C30.109235,36.778809 29.3771756,36.4687664 28.8333518,36.127189 C27.792766,35.4703092 27.2724809,34.6137509 27.2724809,33.5574882 C27.2724809,32.6326015 27.6476614,31.8706324 28.3980336,31.2715581 C29.1484057,30.6724837 30.1223062,30.3729511 31.3197643,30.3729511 C32.1145836,30.3729511 32.8231126,30.5200899 33.4453724,30.8143721 C34.0676323,31.1086542 34.5565434,31.5277372 34.9121205,32.0716336 C35.2676975,32.6155301 35.4454834,33.2185366 35.4454834,33.8806714 L33.4689031,33.8806714 C33.4689031,33.2815971 33.2819665,32.812592 32.9080877,32.473642 C32.5342089,32.1346921 31.999544,31.9652196 31.3040771,31.9652196 C30.6556719,31.9652196 30.1523811,32.1044761 29.7941895,32.3829931 C29.4359979,32.6615101 29.2569047,33.0503771 29.2569047,33.5496057 C29.2569047,33.9700087 29.4503776,34.3207773 29.8373291,34.6019218 C30.2242806,34.8830663 30.8622181,35.1563242 31.7511608,35.4217036 C32.6401034,35.6870831 33.3538614,35.9892432 33.8924561,36.3281932 C34.4310507,36.6671431 34.8258399,37.0560101 35.0768355,37.4948058 C35.3278311,37.9336015 35.453327,38.4472737 35.453327,39.035838 C35.453327,39.9922549 35.0886045,40.7529103 34.3591486,41.3178269 C33.6296927,41.8827435 32.6401052,42.1651975 31.3903564,42.1651975 C30.5641627,42.1651975 29.804651,42.01149 29.1117987,41.7040702 C28.4189463,41.3966505 27.8803597,40.9723126 27.4960227,40.4310436 C27.1116858,39.8897747 26.9195202,39.2591796 26.9195202,38.5392394 L28.903944,38.5392394 C28.903944,39.1908641 29.1183328,39.6953402 29.5471169,40.0526828 C29.975901,40.4100254 30.5903081,40.588694 31.3903564,40.588694 C32.0805943,40.588694 32.5995721,40.4481238 32.9473056,40.1669793 C33.295039,39.8858348 33.4689031,39.5140464 33.4689031,39.051603 Z M39.2888339,42.0075472 L37.3122536,42.0075472 L37.3122536,30.5306014 L39.2888339,30.5306014 L39.2888339,42.0075472 Z M49.7521595,32.138635 L46.1911776,32.138635 L46.1911776,42.0075472 L44.222441,42.0075472 L44.222441,32.138635 L40.6928334,32.138635 L40.6928334,30.5306014 L49.7521595,30.5306014 L49.7521595,32.138635 Z M59.7448708,38.2712338 C59.6298312,39.4956577 59.1801375,40.4507465 58.3957764,41.136529 C57.6114152,41.8223114 56.5682305,42.1651975 55.266191,42.1651975 C54.356332,42.1651975 53.5549884,41.9484305 52.862136,41.5148898 C52.1692836,41.0813492 51.6346188,40.4652052 51.2581254,39.6664394 C50.8816321,38.8676736 50.6855447,37.9401733 50.6698575,36.8839107 L50.6698575,35.8118883 C50.6698575,34.7293504 50.8607159,33.7755753 51.2424383,32.9505343 C51.6241607,32.1254934 52.1718981,31.4896433 52.8856667,31.0429651 C53.5994354,30.5962868 54.4243095,30.3729511 55.3603138,30.3729511 C56.6205208,30.3729511 57.634946,30.7171509 58.4036199,31.4055609 C59.1722939,32.0939709 59.619373,33.0661383 59.7448708,34.3220924 L57.7682906,34.3220924 C57.6741672,33.4970514 57.4349407,32.9019273 57.0506037,32.5367022 C56.6662667,32.171477 56.1028424,31.9888672 55.3603138,31.9888672 C54.4975165,31.9888672 53.8347413,32.3054785 53.3719682,32.9387106 C52.9091951,33.5719427 52.6725831,34.5007567 52.6621249,35.7251806 L52.6621249,36.7420254 C52.6621249,37.9822143 52.88305,38.928107 53.3249068,39.5797317 C53.7667636,40.2313564 54.4138518,40.5571639 55.266191,40.5571639 C56.0453231,40.5571639 56.6309706,40.3811228 57.0231512,40.0290352 C57.4153318,39.6769477 57.6637091,39.0910197 57.7682906,38.2712338 L59.7448708,38.2712338 Z M65.7138295,37.5854547 L63.501942,37.5854547 L63.501942,42.0075472 L61.5175182,42.0075472 L61.5175182,30.5306014 L65.5334273,30.5306014 C66.851154,30.5306014 67.8681938,30.8275066 68.584577,31.4213259 C69.3009602,32.0151452 69.6591464,32.8743311 69.6591464,33.9989092 C69.6591464,34.7661448 69.4748243,35.4085635 69.1061745,35.9261848 C68.7375248,36.443806 68.2237759,36.8418692 67.5649126,37.1203862 L70.1297607,41.9050744 L70.1297607,42.0075472 L68.0041526,42.0075472 L65.7138295,37.5854547 Z M63.501942,35.9853037 L65.5412709,35.9853037 C66.2105924,35.9853037 66.733492,35.8158312 67.1099854,35.4768813 C67.4864787,35.1379313 67.6747226,34.6741812 67.6747226,34.0856169 C67.6747226,33.4707774 67.5008585,32.9952036 67.153125,32.6588812 C66.8053915,32.3225588 66.2864137,32.1491451 65.5961759,32.138635 L63.501942,32.138635 L63.501942,35.9853037 Z M79.8950084,30.5306014 L79.8950084,38.2002911 C79.8950084,39.41946 79.5067555,40.3850587 78.7302379,41.0971164 C77.9537204,41.809174 76.9196864,42.1651975 75.628105,42.1651975 C74.3208364,42.1651975 73.2828807,41.814429 72.5142068,41.1128814 C71.7455328,40.4113338 71.3612016,39.4378526 71.3612016,38.1924086 L71.3612016,30.5306014 L73.3377819,30.5306014 L73.3377819,38.2081736 C73.3377819,38.9754092 73.5312547,39.5613372 73.9182062,39.9659751 C74.3051577,40.370613 74.8751183,40.572929 75.628105,40.572929 C77.1549948,40.572929 77.9184282,39.7636652 77.9184282,38.1451135 L77.9184282,30.5306014 L79.8950084,30.5306014 Z M84.5854648,30.5306014 L87.8797652,39.3274912 L91.166222,30.5306014 L93.7310702,30.5306014 L93.7310702,42.0075472 L91.75449,42.0075472 L91.75449,38.2239387 L91.9505793,33.1633623 L88.5778431,42.0075472 L87.1581565,42.0075472 L83.7932639,33.1712448 L83.9893532,38.2239387 L83.9893532,42.0075472 L82.012773,42.0075472 L82.012773,30.5306014 L84.5854648,30.5306014 Z" id="SITCRUM" fill="#FFFFFF"></path>
            </g>
        </g>
    </g>
</svg>