<?xml version="1.0" encoding="UTF-8" standalone="no"?>
<svg width="34px" height="34px" viewBox="0 0 34 34" version="1.1" xmlns="http://www.w3.org/2000/svg" xmlns:xlink="http://www.w3.org/1999/xlink" xmlns:sketch="http://www.bohemiancoding.com/sketch/ns">
    <!-- Generator: Sketch 3.3.2 (12043) - http://www.bohemiancoding.com/sketch -->
    <title>expand8 copy</title>
    <desc>Created with Sketch.</desc>
    <defs></defs>
    <g id="Page-1" stroke="none" stroke-width="1" fill="none" fill-rule="evenodd" sketch:type="MSPage">
        <g id="sitcrum_signosCompleta-Copy-3" sketch:type="MSArtboardGroup" transform="translate(-1457.000000, -79.000000)" fill="#313131">
            <g id="expand8-copy" sketch:type="MSLayerGroup" transform="translate(1457.000000, 79.000000)">
                <path d="M31.8490624,0 L2.12323965,0 C0.951255722,0 0,0.951255722 0,2.12323965 L0,31.8490624 C0,33.0211131 0.951255722,33.972302 2.12323965,33.972302 L31.8490624,33.972302 C33.0211131,33.972302 33.972302,33.0210463 33.972302,31.8490624 L33.972302,2.12323965 C33.9723688,0.951255722 33.0211131,0 31.8490624,0 L31.8490624,0 Z M13.8012581,29.7258227 L5.30816593,29.7258227 L4.90265134,29.6429828 L4.56714981,29.42005 L4.5586654,29.4157744 L4.550181,29.4030144 L4.32938599,29.0675129 L4.2465461,28.6683449 L4.2465461,20.1711107 C4.2465461,19.5872231 4.72214056,19.1094909 5.30816593,19.1094909 C5.89419129,19.1094909 6.36978575,19.5872231 6.36978575,20.1711107 L6.36978575,26.1013774 L13.0496198,19.4215434 C13.4636856,19.0117532 14.1367597,19.0117532 14.5507587,19.4215434 C14.9648245,19.8356092 14.9648245,20.512892 14.5507587,20.9226822 L7.8709246,27.6025163 L13.8011913,27.6025163 C14.3872167,27.6025163 14.8628111,28.0802485 14.8628111,28.6641361 C14.862878,29.2480905 14.3872835,29.7258227 13.8012581,29.7258227 L13.8012581,29.7258227 Z M29.7258227,13.8012581 C29.7258227,14.3872835 29.2480905,14.862878 28.6642029,14.862878 C28.0803153,14.862878 27.6025831,14.3872835 27.6025831,13.8012581 L27.6025831,7.87099141 L20.922749,14.5528965 C20.5129588,14.9669623 19.8356092,14.9669623 19.4216102,14.5528965 C19.01182,14.1388307 19.01182,13.4657566 19.4216102,13.0517576 L26.1014442,6.36985256 L20.1711775,6.36985256 C19.5872899,6.36985256 19.1095577,5.8942581 19.1095577,5.30823273 C19.1095577,4.72220737 19.5872899,4.24661291 20.1711775,4.24661291 L28.6642697,4.24661291 L29.0697843,4.32945279 C29.3267215,4.4377459 29.5368943,4.6437099 29.6430496,4.90271814 L29.7258895,5.30823273 L29.7258895,13.8012581 L29.7258227,13.8012581 Z" id="Shape" sketch:type="MSShapeGroup"></path>
            </g>
        </g>
    </g>
</svg>